PathFileType	4	(x/y/z)	S04_P20_T07.trc
DataRate	CameraRate	NumFrames	NumMarkers	Units	OrigDataRate	OrigDataStartFrame	OrigNumFrames
240	240	4	51	mm	240	93	369
Frame#	Time	Sternum			R.Acromium			L.Acromium			Top.Head			R.ASIS			L.ASIS			R.PSIS			L.PSIS			R.Great.Tro			L.Great.Tro			R.Iliac.Crest			L.Iliac.Crest			V.Sacral			R.Thigh.Upper.Post			R.Thigh.Lower.Ant			R.Thigh.Lower.Post			R.Thigh.Upper.Ant			R.Knee.Lat			R.Knee.Med			R.Shank.Upper.Post			R.Shank.Lower.Ant			R.Shank.Lower.Post			R.Shank.Upper.Ant			R.Ankle.Lat			R.Ankle.Med			R.Heel.Upper			R.Heel.Med			R.Heel.Lat			R.Toe.Lat			R.Toe.Med			R.Toe.Tip			L.Thigh.Upper.Post			L.Thigh.Lower.Ant			L.Thigh.Lower.Post			L.Thigh.Upper.Ant			L.Knee.Lat			L.Knee.Med			L.Shank.Upper.Post			L.Shank.Lower.Ant			L.Shank.Lower.Post			L.Shank.Upper.Ant			L.Ankle.Lat			L.Ankle.Med			L.Heel.Upper			L.Heel.Med			L.Heel.Lat			L.Toe.Lat			L.Toe.Med			L.Toe.Tip			Cervical.Spine			Back			
		X1	Y1	Z1	X2	Y2	Z2	X3	Y3	Z3	X4	Y4	Z4	X5	Y5	Z5	X6	Y6	Z6	X7	Y7	Z7	X8	Y8	Z8	X9	Y9	Z9	X10	Y10	Z10	X11	Y11	Z11	X12	Y12	Z12	X13	Y13	Z13	X14	Y14	Z14	X15	Y15	Z15	X16	Y16	Z16	X17	Y17	Z17	X18	Y18	Z18	X19	Y19	Z19	X20	Y20	Z20	X21	Y21	Z21	X22	Y22	Z22	X23	Y23	Z23	X24	Y24	Z24	X25	Y25	Z25	X26	Y26	Z26	X27	Y27	Z27	X28	Y28	Z28	X29	Y29	Z29	X30	Y30	Z30	X31	Y31	Z31	X32	Y32	Z32	X33	Y33	Z33	X34	Y34	Z34	X35	Y35	Z35	X36	Y36	Z36	X37	Y37	Z37	X38	Y38	Z38	X39	Y39	Z39	X40	Y40	Z40	X41	Y41	Z41	X42	Y42	Z42	X43	Y43	Z43	X44	Y44	Z44	X45	Y45	Z45	X46	Y46	Z46	X47	Y47	Z47	X48	Y48	Z48	X49	Y49	Z49	X50	Y50	Z50	X51	Y51	Z51	

93	0.38333	-851.6	1286	248.47	-978.84	1518.1	418.46	-979.54	1500	68.374	-962.53	1840.4	227.67	-890.62	1008.6	381.94	-894.91	1018.2	133.12	-1106.3	1037	291.58	-1099.3	1042	209.72	-973.6	930.07	453.07	-1017.9	931.66	75.617	-976.84	1098.8	426.05	-989.74	1100.2	89.611	-1123.8	997.57	250.47	-880.48	681.78	445.58	-783.38	629.36	406.5	-849.94	596.33	430.78	-811.78	735.37	426.76	-810.52	538.47	419.91	-829.51	529.98	286.61	-885.9	316.7	414.79	-817.27	237.98	379.76	-885.7	246.82	400.01	-820.84	307.9	402.05	-873.83	131.24	382.83	-844.66	144.88	297.67	-930.67	94.68	319.09	-914.04	66.069	290.37	-929.02	62.086	352.82	-769.3	62.503	426.14	-715.59	68.443	315.68	-662.44	90.337	371.13	-1049.8	701.37	95.851	-977.09	598.84	103.58	-1046.8	613.18	109.06	-984.28	687.2	85.382	-1019.4	512.06	120.04	-1016.6	504.14	243.74	-1124.1	342.48	124.95	-1064.9	248.62	130.66	-1128.6	263.47	136.7	-1063.3	324.77	120.3	-1101.7	102.42	154.56	-1100.1	112.37	247.8	-1181.4	73.082	200.26	-1174.6	47.398	233.55	-1177.7	45.201	172.33	-992.74	42.239	135.03	-962.31	47.069	251.35	-904.78	57.204	202.26	-1028.6	1562	245.74	-1113.4	1306.8	226.45
94	0.3875	-846.51	1285.3	248.53	-973.96	1517.5	418.39	-974.17	1499.4	68.287	-957.63	1839.9	227.69	-885.47	1008	381.85	-890.08	1017.5	133.08	-1101.2	1036.4	291.78	-1094.2	1041.4	209.93	-968.77	929.6	453.19	-1013.3	931.26	75.712	-971.57	1098.2	426.08	-984.81	1099.6	89.617	-1118.6	997.05	250.69	-875.59	681.21	445.41	-778.46	628.95	406.34	-844.95	595.8	430.55	-806.97	734.9	426.64	-804.95	538.34	419.69	-824.23	529.49	286.41	-875.19	314.94	414.71	-804.81	237.96	379.37	-873.35	245.13	399.93	-810.01	307.76	401.72	-858.53	129.79	382.59	-829.95	144.18	297.26	-914.93	92.192	319.06	-897.85	63.984	290.21	-912.43	59.616	352.74	-752.35	63.239	425.2	-699.4	70.34	314.41	-646.41	93.246	369.57	-1046.7	701.43	96.034	-974.66	598.5	103.67	-1044.3	613.24	109.18	-981.38	686.88	85.524	-1017.7	511.88	120.03	-1014.8	503.94	243.74	-1123.1	342.76	125.03	-1064.2	248.64	130.64	-1127.7	263.81	136.7	-1062.3	324.79	120.3	-1101.5	102.52	154.65	-1099.9	112.45	247.88	-1181.4	73.185	200.35	-1174.6	47.445	233.61	-1177.6	45.336	172.39	-992.7	42.227	135.03	-962.27	46.899	251.4	-904.7	56.977	202.27	-1023.5	1561.4	245.58	-1107.9	1306.2	226.23
95	0.39167	-841.4	1284.7	248.59	-969.06	1516.9	418.33	-968.81	1498.8	68.215	-952.73	1839.3	227.72	-880.3	1007.5	381.76	-885.24	1016.8	133.04	-1096	1035.9	291.98	-1089.2	1040.9	210.15	-963.91	929.08	453.31	-1008.8	930.85	75.806	-966.33	1097.6	426.13	-979.87	1099	89.631	-1113.5	996.51	250.9	-870.77	680.58	445.25	-773.6	628.46	406.2	-840.04	595.21	430.32	-802.21	734.34	426.55	-799.45	538.15	419.47	-819.01	528.93	286.2	-864.57	313.25	414.63	-792.48	238.03	378.98	-861.1	243.54	399.85	-799.29	307.68	401.39	-843.35	128.52	382.35	-815.38	143.63	296.84	-899.34	89.881	319.05	-881.82	62.075	290.07	-895.96	57.347	352.7	-735.57	64.192	424.24	-683.43	72.41	313.1	-630.62	96.345	367.97	-1043.7	701.47	96.209	-972.17	598.15	103.75	-1041.8	613.27	109.32	-978.42	686.55	85.663	-1015.8	511.69	120.02	-1012.8	503.72	243.74	-1122	343.05	125.1	-1063.5	248.65	130.62	-1126.9	264.17	136.7	-1061.3	324.81	120.3	-1101.3	102.63	154.74	-1099.7	112.54	247.97	-1181.3	73.293	200.44	-1174.5	47.496	233.68	-1177.6	45.473	172.45	-992.66	42.216	135.04	-962.22	46.73	251.45	-904.62	56.743	202.29	-1018.4	1560.8	245.44	-1102.4	1305.6	226.03
96	0.39583	-836.28	1284	248.65	-964.13	1516.2	418.29	-963.46	1498.2	68.159	-947.8	1838.7	227.76	-875.11	1006.9	381.68	-880.39	1016.1	133.01	-1090.9	1035.3	292.18	-1084.1	1040.3	210.37	-959.02	928.54	453.42	-1004.2	930.42	75.9	-961.1	1097	426.19	-974.92	1098.4	89.652	-1108.3	995.96	251.13	-865.99	679.88	445.09	-768.8	627.89	406.09	-835.2	594.55	430.08	-797.5	733.72	426.49	-794.01	537.92	419.25	-813.85	528.33	285.98	-854.03	311.64	414.52	-780.3	238.19	378.57	-848.97	242.07	399.76	-788.7	307.66	401.05	-828.34	127.41	382.09	-800.99	143.21	296.4	-883.91	87.743	319.05	-865.96	60.336	289.94	-879.65	55.275	352.67	-718.99	65.351	423.27	-667.71	74.642	311.78	-615.08	99.623	366.34	-1040.6	701.48	96.377	-969.62	597.79	103.84	-1039.2	613.28	109.45	-975.4	686.21	85.802	-1013.9	511.49	120.02	-1010.8	503.5	243.75	-1120.8	343.35	125.16	-1062.8	248.67	130.6	-1125.9	264.54	136.68	-1060.3	324.83	120.3	-1101.1	102.75	154.83	-1099.6	112.64	248.06	-1181.2	73.406	200.54	-1174.5	47.552	233.75	-1177.5	45.615	172.52	-992.62	42.207	135.05	-962.17	46.562	251.5	-904.54	56.505	202.3	-1013.3	1560.2	245.32	-1096.9	1304.9	225.86
